<mxfile host="app.diagrams.net" modified="2023-10-09T17:03:03.348Z" agent="Mozilla/5.0 (Windows NT 10.0; Win64; x64) AppleWebKit/537.36 (KHTML, like Gecko) Chrome/109.0.0.0 Safari/537.36 Edg/109.0.1518.61" version="21.7.5" etag="UR_pWobo_onkAG56c-IW" type="github">
  <diagram name="PÃ¡gina-1" id="WvRyxk6PXsDEB4z57DiI">
    <mxGraphModel>
      <root>
        <mxCell id="0" />
        <mxCell id="1" parent="0" />
      </root>
    </mxGraphModel>
  </diagram>
</mxfile>
